<svg xmlns="http://www.w3.org/2000/svg" viewBox="0 0 96 96">
  <defs>
    <linearGradient id="fl" x1="0" y1="0" x2="1" y2="1">
      <stop offset="0" stop-color="#7C3AED" />
      <stop offset="1" stop-color="#5925A8" />
    </linearGradient>
    <linearGradient id="fr" x1="0" y1="0" x2="1" y2="1">
      <stop offset="0" stop-color="#F9A825" />
      <stop offset="1" stop-color="#E06A11" />
    </linearGradient>
    <clipPath id="cl"><rect x="0" y="0" width="46" height="96" /></clipPath>
    <clipPath id="cr"><rect x="50" y="0" width="46" height="96" /></clipPath>
  </defs>
  <g clip-path="url(#cl)" fill="url(#fl)">
    <circle cx="34" cy="26" r="15" />
    <circle cx="20" cy="38" r="14" />
    <circle cx="22" cy="56" r="13" />
    <circle cx="34" cy="67" r="13" />
    <circle cx="44" cy="44" r="18" />
  </g>
  <g clip-path="url(#cr)" fill="url(#fr)">
    <circle cx="62" cy="26" r="15" />
    <circle cx="76" cy="38" r="14" />
    <circle cx="74" cy="56" r="13" />
    <circle cx="62" cy="67" r="13" />
    <circle cx="52" cy="44" r="18" />
    <path d="M56 72 C58 80 54 86 60 90 L69 85 C64 81 67 75 65 69 Z" />
  </g>
  <circle cx="27" cy="41" r="4" fill="#EFE7FB" />
  <circle cx="68" cy="41" r="4" fill="#8A4B12" opacity="0.8" />
</svg>
